# xmcd CD database file
#
# Track frame offsets:
#	150
#	19912
#	33909
#	54961
#	75175
#	89499
#	105725
#	126389
#	148104
#	167868
#
# Disc length: 2457 seconds
#
# Revision: 0
# Processed by: cddbd v1.5.1PL0 Copyright (c) Steve Scherf et al.
# Submitted via: CDex 1.51
#
DISCID=7d09970a
DTITLE=The Tennessee Boltsmokers - Songs From The Floor
DYEAR=2003
DGENRE=Country
TTITLE0=Midtown
TTITLE1=Never Be Mine
TTITLE2=New York City On The Floor
TTITLE3=Heart Of Stone
TTITLE4=(Turn Out The Light) And Love Me Tonight
TTITLE5=Running Around
TTITLE6=Undertow
TTITLE7=Carry Me Away
TTITLE8=Robin's Song
TTITLE9=Everybody
EXTD=YEAR: 2003
EXTT0=
EXTT1=
EXTT2=
EXTT3=
EXTT4=
EXTT5=
EXTT6=
EXTT7=
EXTT8=
EXTT9=
PLAYORDER=
